<svg width="500" height="500" viewBox="0 0 500 500" fill="none" xmlns="http://www.w3.org/2000/svg">
<rect width="500" height="500" fill="#333333"/>
<g clip-path="url(#clip0_7_23)">
<path d="M25 276.297V231.198H35.9225L48.8971 263.218L61.8715 231.198H72.7943V276.297H67.4985V236.996H65.2479L51.8098 269.274H46.0506L32.5465 236.996H30.2296V276.297H25Z" fill="white"/>
<path d="M131.859 231.198L116.237 261.092V276.297H110.941V261.092L95.3188 231.198H100.813L113.589 255.809L126.365 231.198H131.859Z" fill="white"/>
<path d="M169.78 276.941C167.794 276.941 165.785 276.64 163.756 276.039C161.77 275.438 159.894 274.622 158.129 273.591C156.408 272.517 154.929 271.336 153.694 270.048L159.585 264.507C160.909 265.838 162.498 266.912 164.351 267.728C166.249 268.544 168.014 268.952 169.647 268.952C171.721 268.952 173.464 268.372 174.876 267.213C176.333 266.01 177.061 264.593 177.061 262.96C177.061 261.629 176.554 260.491 175.539 259.546C174.523 258.558 173.266 257.849 171.765 257.419C167.838 256.389 164.484 255.293 161.703 254.134C158.967 252.974 156.937 251.449 155.613 249.559C154.289 247.67 153.804 245.135 154.157 241.957C154.466 239.466 155.304 237.404 156.672 235.772C158.085 234.097 159.85 232.851 161.968 232.035C164.131 231.219 166.514 230.811 169.117 230.811C171.456 230.811 173.906 231.176 176.465 231.906C179.025 232.593 181.563 233.753 184.078 235.385L178.451 241.055C177.171 240.368 175.781 239.788 174.281 239.315C172.78 238.843 171.236 238.585 169.647 238.542C168.411 238.499 167.22 238.628 166.072 238.929C164.969 239.187 164.042 239.659 163.292 240.346C162.542 240.991 162.145 241.871 162.1 242.988C162.056 244.233 162.387 245.2 163.093 245.887C163.8 246.574 164.771 247.133 166.006 247.562C167.286 247.992 168.764 248.464 170.441 248.98C173.53 249.796 176.156 250.741 178.319 251.814C180.481 252.845 182.136 254.241 183.284 256.002C184.431 257.72 185.005 260.04 185.005 262.96C185.005 265.58 184.321 267.943 182.953 270.048C181.584 272.152 179.753 273.827 177.458 275.073C175.163 276.318 172.604 276.941 169.78 276.941Z" fill="white"/>
<path d="M250.884 253.618C250.884 256.84 250.288 259.868 249.097 262.703C247.95 265.495 246.338 267.943 244.264 270.048C242.19 272.152 239.785 273.806 237.049 275.009C234.313 276.211 231.378 276.812 228.245 276.812C225.067 276.812 222.111 276.211 219.375 275.009C216.638 273.763 214.233 272.087 212.159 269.983C210.085 267.835 208.452 265.366 207.26 262.574C206.113 259.739 205.539 256.754 205.539 253.618C205.539 250.483 206.135 247.541 207.326 244.792C208.518 242 210.173 239.552 212.291 237.447C214.41 235.299 216.837 233.624 219.573 232.422C222.309 231.219 225.2 230.618 228.245 230.618C231.378 230.618 234.291 231.219 236.983 232.422C239.719 233.624 242.124 235.299 244.198 237.447C246.317 239.552 247.95 242 249.097 244.792C250.288 247.541 250.884 250.483 250.884 253.618ZM242.676 253.618C242.676 250.784 242.014 248.206 240.69 245.887C239.41 243.568 237.667 241.721 235.46 240.346C233.298 238.929 230.893 238.22 228.245 238.22C225.597 238.22 223.17 238.929 220.963 240.346C218.756 241.764 216.991 243.654 215.667 246.016C214.387 248.335 213.748 250.869 213.748 253.618C213.748 256.453 214.387 259.052 215.667 261.414C216.991 263.776 218.756 265.666 220.963 267.084C223.17 268.501 225.597 269.21 228.245 269.21C230.937 269.21 233.364 268.501 235.527 267.084C237.689 265.666 239.41 263.776 240.69 261.414C242.014 259.009 242.676 256.41 242.676 253.618Z" fill="white"/>
<path d="M318.051 253.618C318.051 256.84 317.455 259.868 316.264 262.703C315.116 265.495 313.505 267.943 311.431 270.048C309.357 272.152 306.952 273.806 304.215 275.009C301.479 276.211 298.545 276.812 295.411 276.812C292.234 276.812 289.277 276.211 286.541 275.009C283.805 273.763 281.4 272.087 279.325 269.983C277.251 267.835 275.619 265.366 274.427 262.574C273.28 259.739 272.706 256.754 272.706 253.618C272.706 250.483 273.302 247.541 274.493 244.792C275.685 242 277.339 239.552 279.458 237.447C281.576 235.299 284.003 233.624 286.74 232.422C289.476 231.219 292.366 230.618 295.411 230.618C298.545 230.618 301.458 231.219 304.149 232.422C306.886 233.624 309.291 235.299 311.365 237.447C313.483 239.552 315.116 242 316.264 244.792C317.455 247.541 318.051 250.483 318.051 253.618ZM309.842 253.618C309.842 250.784 309.18 248.206 307.856 245.887C306.577 243.568 304.834 241.721 302.627 240.346C300.465 238.929 298.059 238.22 295.411 238.22C292.764 238.22 290.336 238.929 288.13 240.346C285.923 241.764 284.158 243.654 282.834 246.016C281.554 248.335 280.914 250.869 280.914 253.618C280.914 256.453 281.554 259.052 282.834 261.414C284.158 263.776 285.923 265.666 288.13 267.084C290.336 268.501 292.764 269.21 295.411 269.21C298.103 269.21 300.531 268.501 302.693 267.084C304.855 265.666 306.577 263.776 307.856 261.414C309.18 259.009 309.842 256.41 309.842 253.618Z" fill="white"/>
<path d="M371.381 238.285H358.271V276.297H350.329V238.285H337.222V231.198H371.381V238.285Z" fill="white"/>
<path d="M426.9 276.297H418.955V257.935H401.812V276.297H393.868V231.198H401.812V250.848H418.955V231.198H426.9V276.297Z" fill="white"/>
<path d="M475 276.297H450.045V231.198H475V238.413H457.986V250.977H471.757V257.484H457.986V269.081H475V276.297Z" fill="white"/>
</g>
<defs>
<clipPath id="clip0_7_23">
<rect width="450" height="52.9412" fill="white" transform="translate(25 224)"/>
</clipPath>
</defs>
</svg>
