<svg width="1024" height="1024" viewBox="0 0 1024 1024" fill="none" xmlns="http://www.w3.org/2000/svg">
<rect width="1024" height="1024" fill="#F18D8D"/>
<rect width="1024" height="1024" fill="#FFF1F1"/>
<path d="M147.984 520.583H135.13C135.13 534.675 135.13 548.006 135.13 560.574C135.32 572.952 135.51 585.14 135.701 597.138H149.127C181.31 597.138 197.402 584.569 197.402 559.432C197.402 546.292 193.403 536.579 185.404 530.295C177.406 523.82 164.933 520.583 147.984 520.583ZM150.84 437.173H135.701C135.51 449.36 135.32 461.453 135.13 473.45C135.13 485.448 135.13 496.493 135.13 506.586H146.841C161.505 506.586 172.264 503.634 179.12 497.731C185.976 491.827 189.403 482.782 189.403 470.594C189.403 458.787 186.166 450.313 179.691 445.171C173.407 439.839 163.79 437.173 150.84 437.173ZM74 436.03V422.604H161.41C183.31 422.604 199.497 426.889 209.97 435.459C220.444 444.028 225.681 454.883 225.681 468.023C225.681 477.926 222.253 486.971 215.398 495.16C208.542 503.158 196.545 508.776 179.406 512.013C199.592 514.489 214.065 520.012 222.825 528.581C231.585 537.151 235.965 547.434 235.965 559.432C235.965 565.716 234.537 572 231.68 578.285C229.014 584.379 224.539 589.996 218.254 595.138C212.16 600.28 203.781 604.374 193.117 607.421C182.643 610.468 169.503 611.992 153.697 611.992H74V598.566L97.9948 595.995C98.3757 583.998 98.5661 571.905 98.5661 559.717C98.5661 547.529 98.5661 535.246 98.5661 522.868V511.728C98.5661 499.54 98.5661 487.352 98.5661 475.164C98.5661 462.976 98.3757 450.789 97.9948 438.601L74 436.03Z" fill="#3F2E2C"/>
<path d="M262.116 611.992V600.28L281.541 596.566C281.731 589.139 281.826 581.713 281.826 574.286C282.017 566.859 282.112 559.432 282.112 552.005V429.46L261.259 426.603V415.463L313.248 402.609L317.533 405.18L316.39 445.456V552.005C316.39 559.432 316.39 566.859 316.39 574.286C316.581 581.713 316.771 589.139 316.961 596.566L336.386 600.28V611.992H262.116Z" fill="#3F2E2C"/>
<path d="M434.432 615.991C421.483 615.991 409.771 613.134 399.297 607.421C389.013 601.708 380.825 593.424 374.731 582.569C368.637 571.715 365.59 558.765 365.59 543.721C365.59 528.486 368.732 515.441 375.016 504.586C381.491 493.732 389.966 485.448 400.439 479.735C410.913 474.022 422.244 471.165 434.432 471.165C446.62 471.165 457.951 474.022 468.425 479.735C478.899 485.448 487.373 493.732 493.848 504.586C500.323 515.251 503.56 528.296 503.56 543.721C503.56 558.956 500.418 572 494.133 582.855C488.039 593.519 479.756 601.708 469.282 607.421C458.998 613.134 447.382 615.991 434.432 615.991ZM434.432 601.994C444.716 601.994 452.523 597.233 457.856 587.711C463.378 578.189 466.14 563.621 466.14 544.006C466.14 504.777 455.57 485.162 434.432 485.162C413.484 485.162 403.01 504.777 403.01 544.006C403.01 563.621 405.676 578.189 411.009 587.711C416.341 597.233 424.149 601.994 434.432 601.994Z" fill="#3F2E2C"/>
<path d="M606.456 615.991C593.506 615.991 581.794 613.134 571.32 607.421C561.037 601.708 552.848 593.424 546.754 582.569C540.66 571.715 537.613 558.765 537.613 543.721C537.613 528.486 540.756 515.441 547.04 504.586C553.515 493.732 561.989 485.448 572.463 479.735C582.937 474.022 594.268 471.165 606.456 471.165C618.643 471.165 629.974 474.022 640.448 479.735C650.922 485.448 659.397 493.732 665.871 504.586C672.346 515.251 675.583 528.296 675.583 543.721C675.583 558.956 672.441 572 666.157 582.855C660.063 593.519 651.779 601.708 641.305 607.421C631.022 613.134 619.405 615.991 606.456 615.991ZM606.456 601.994C616.739 601.994 624.547 597.233 629.879 587.711C635.402 578.189 638.163 563.621 638.163 544.006C638.163 504.777 627.594 485.162 606.456 485.162C585.508 485.162 575.034 504.777 575.034 544.006C575.034 563.621 577.7 578.189 583.032 587.711C588.364 597.233 596.172 601.994 606.456 601.994Z" fill="#3F2E2C"/>
<path d="M707.664 611.992V600.28L726.231 596.566C726.422 589.52 726.517 581.903 726.517 573.714C726.517 565.335 726.517 558.099 726.517 552.005V536.865C726.517 529.057 726.422 522.868 726.231 518.298C726.231 513.537 726.041 508.3 725.66 502.587L705.665 500.016V489.161L753.368 471.165L757.939 474.022L759.938 496.303C766.794 488.495 774.221 482.401 782.219 478.021C790.408 473.45 798.882 471.165 807.642 471.165C826.115 471.165 838.017 479.83 843.349 497.16C850.966 488.019 858.869 481.449 867.058 477.45C875.247 473.26 883.721 471.165 892.481 471.165C905.431 471.165 915.143 475.164 921.618 483.163C928.092 491.161 931.33 503.92 931.33 521.44V552.005C931.33 558.48 931.33 565.811 931.33 574C931.33 581.998 931.425 589.616 931.615 596.852L949.04 600.28V611.992H879.341V600.28L897.052 596.566C897.242 589.52 897.337 581.998 897.337 574C897.337 565.811 897.337 558.48 897.337 552.005V525.725C897.337 513.727 895.718 505.634 892.481 501.444C889.434 497.255 884.292 495.16 877.056 495.16C866.963 495.16 856.489 500.016 845.634 509.728C845.825 511.633 845.92 513.632 845.92 515.727C846.11 517.822 846.205 520.012 846.205 522.297V552.005C846.205 558.48 846.205 565.811 846.205 574C846.205 581.998 846.301 589.616 846.491 596.852L863.63 600.28V611.992H793.645V600.28L811.927 596.566C812.118 589.52 812.213 581.998 812.213 574C812.213 565.811 812.213 558.48 812.213 552.005V526.296C812.213 514.68 810.689 506.586 807.642 502.016C804.786 497.445 799.644 495.16 792.217 495.16C786.885 495.16 781.553 496.493 776.221 499.159C771.079 501.635 766.032 505.063 761.081 509.443V552.005C761.081 558.289 761.081 565.526 761.081 573.714C761.081 581.903 761.176 589.616 761.367 596.852L778.22 600.28V611.992H707.664Z" fill="#3F2E2C"/>
</svg>
