<svg width="1024" height="1024" viewBox="0 0 1024 1024" fill="none" xmlns="http://www.w3.org/2000/svg">
<rect width="1024" height="1024" fill="#F18D8D"/>
<rect width="1024" height="1024" fill="#2D3B2D"/>
<path d="M147.899 521.469H135.06C135.06 535.551 135.06 548.872 135.06 561.432C135.25 573.802 135.44 585.981 135.63 597.97H149.041C181.187 597.97 197.261 585.41 197.261 560.29C197.261 547.159 193.266 537.454 185.277 531.174C177.288 524.704 164.829 521.469 147.899 521.469ZM150.753 438.116H135.63C135.44 450.295 135.25 462.379 135.06 474.369C135.06 486.358 135.06 497.395 135.06 507.481H146.758C161.405 507.481 172.152 504.532 179 498.632C185.848 492.733 189.272 483.693 189.272 471.514C189.272 459.715 186.038 451.247 179.571 446.109C173.293 440.78 163.687 438.116 150.753 438.116ZM74 436.974V423.558H161.31C183.185 423.558 199.353 427.839 209.815 436.403C220.277 444.967 225.508 455.814 225.508 468.945C225.508 478.841 222.084 487.88 215.236 496.063C208.389 504.056 196.405 509.67 179.285 512.905C199.448 515.379 213.905 520.898 222.655 529.461C231.405 538.025 235.78 548.301 235.78 560.29C235.78 566.57 234.353 572.85 231.5 579.13C228.837 585.22 224.367 590.834 218.09 595.972C212.003 601.11 203.633 605.202 192.981 608.247C182.519 611.292 169.394 612.814 153.606 612.814H74V599.398L97.9674 596.829C98.3478 584.839 98.538 572.755 98.538 560.576C98.538 548.396 98.538 536.122 98.538 523.752V512.619C98.538 500.44 98.538 488.261 98.538 476.081C98.538 463.902 98.3478 451.722 97.9674 439.543L74 436.974Z" fill="white"/>
<path d="M261.901 612.814V601.11L281.304 597.399C281.494 589.978 281.589 582.556 281.589 575.134C281.779 567.712 281.874 560.29 281.874 552.869V430.409L261.046 427.554V416.421L312.975 403.576L317.255 406.145L316.113 446.394V552.869C316.113 560.29 316.113 567.712 316.113 575.134C316.304 582.556 316.494 589.978 316.684 597.399L336.086 601.11V612.814H261.901Z" fill="white"/>
<path d="M434.021 616.81C421.086 616.81 409.387 613.956 398.926 608.247C388.654 602.538 380.474 594.259 374.387 583.412C368.301 572.565 365.257 559.624 365.257 544.59C365.257 529.366 368.396 516.33 374.673 505.483C381.14 494.636 389.605 486.358 400.067 480.648C410.529 474.939 421.847 472.085 434.021 472.085C446.195 472.085 457.512 474.939 467.974 480.648C478.436 486.358 486.901 494.636 493.368 505.483C499.836 516.14 503.07 529.176 503.07 544.59C503.07 559.815 499.931 572.85 493.654 583.698C487.567 594.355 479.292 602.538 468.83 608.247C458.559 613.956 446.955 616.81 434.021 616.81ZM434.021 602.823C444.292 602.823 452.091 598.065 457.417 588.55C462.934 579.035 465.692 564.477 465.692 544.876C465.692 505.673 455.135 486.072 434.021 486.072C413.097 486.072 402.635 505.673 402.635 544.876C402.635 564.477 405.298 579.035 410.624 588.55C415.95 598.065 423.749 602.823 434.021 602.823Z" fill="white"/>
<path d="M605.848 616.81C592.913 616.81 581.215 613.956 570.753 608.247C560.481 602.538 552.302 594.259 546.215 583.412C540.128 572.565 537.084 559.624 537.084 544.59C537.084 529.366 540.223 516.33 546.5 505.483C552.967 494.636 561.432 486.358 571.894 480.648C582.356 474.939 593.674 472.085 605.848 472.085C618.022 472.085 629.34 474.939 639.802 480.648C650.264 486.358 658.728 494.636 665.196 505.483C671.663 516.14 674.897 529.176 674.897 544.59C674.897 559.815 671.758 572.85 665.481 583.698C659.394 594.355 651.12 602.538 640.658 608.247C630.386 613.956 618.783 616.81 605.848 616.81ZM605.848 602.823C616.12 602.823 623.918 598.065 629.245 588.55C634.761 579.035 637.519 564.477 637.519 544.876C637.519 505.673 626.962 486.072 605.848 486.072C584.924 486.072 574.462 505.673 574.462 544.876C574.462 564.477 577.125 579.035 582.451 588.55C587.777 598.065 595.576 602.823 605.848 602.823Z" fill="white"/>
<path d="M706.941 612.814V601.11L725.487 597.399C725.677 590.358 725.772 582.746 725.772 574.563C725.772 566.19 725.772 558.958 725.772 552.868V537.739C725.772 529.937 725.677 523.752 725.487 519.185C725.487 514.427 725.297 509.194 724.916 503.485L704.943 500.916V490.068L752.593 472.085L757.158 474.939L759.155 497.205C766.003 489.402 773.422 483.313 781.411 478.936C789.59 474.368 798.055 472.085 806.805 472.085C825.256 472.085 837.145 480.744 842.471 498.061C850.079 488.927 857.973 482.361 866.153 478.365C874.332 474.178 882.797 472.085 891.547 472.085C904.482 472.085 914.183 476.081 920.65 484.074C927.117 492.067 930.351 504.817 930.351 522.325V552.868C930.351 559.339 930.351 566.665 930.351 574.848C930.351 582.841 930.446 590.453 930.636 597.685L948.041 601.11V612.814H878.422V601.11L896.112 597.399C896.302 590.358 896.397 582.841 896.397 574.848C896.397 566.665 896.397 559.339 896.397 552.868V526.607C896.397 514.618 894.78 506.53 891.547 502.343C888.503 498.156 883.367 496.063 876.139 496.063C866.058 496.063 855.596 500.916 844.753 510.621C844.943 512.524 845.039 514.522 845.039 516.616C845.229 518.709 845.324 520.898 845.324 523.181V552.868C845.324 559.339 845.324 566.665 845.324 574.848C845.324 582.841 845.419 590.453 845.609 597.685L862.729 601.11V612.814H792.824V601.11L811.085 597.399C811.275 590.358 811.37 582.841 811.37 574.848C811.37 566.665 811.37 559.339 811.37 552.868V527.178C811.37 515.569 809.848 507.481 806.805 502.914C803.952 498.347 798.816 496.063 791.397 496.063C786.071 496.063 780.745 497.395 775.419 500.059C770.283 502.533 765.242 505.959 760.297 510.336V552.868C760.297 559.148 760.297 566.38 760.297 574.563C760.297 582.746 760.392 590.453 760.582 597.685L777.416 601.11V612.814H706.941Z" fill="white"/>
</svg>
